<svg id="Layer_1" data-name="Layer 1" xmlns="http://www.w3.org/2000/svg" viewBox="0 0 156.09 45.07"><defs><style>.cls-1{fill:#5e5705;}</style></defs><path d="M534.82,393.8a14.73,14.73,0,0,0,2.21,1,10.61,10.61,0,0,0,3.75.6,6.59,6.59,0,0,0,3.09-.64,4,4,0,0,0,1.83-1.92,11,11,0,0,0,.84-3.35,42.89,42.89,0,0,0,.24-4.87V366.92h6.62V384.1a54.51,54.51,0,0,1-.41,6.95,14.76,14.76,0,0,1-1.7,5.43A8.68,8.68,0,0,1,547.5,400a15.11,15.11,0,0,1-6.68,1.24,14.86,14.86,0,0,1-4.12-.53,11.51,11.51,0,0,1-3.36-1.58Z" transform="translate(-533.34 -366.92)"/><path d="M557.29,393.65a6.74,6.74,0,0,1,1.37-4.22,9,9,0,0,1,3.79-2.82,14.41,14.41,0,0,1,5.64-1,22,22,0,0,1,3.21.24,11.14,11.14,0,0,1,2.84.77v-1.39a4.62,4.62,0,0,0-1.4-3.58,6,6,0,0,0-4.17-1.27,11,11,0,0,0-4,.72,21.67,21.67,0,0,0-3.93,2.06l-2-4.17a18,18,0,0,1,5.07-2.47,18.74,18.74,0,0,1,5.49-.8q5.38,0,8.38,2.63t3,7.59v7.91a2.22,2.22,0,0,0,.36,1.42,1.73,1.73,0,0,0,1.17.52V401q-.86.15-1.56.24a5.42,5.42,0,0,1-1.17.05,4.39,4.39,0,0,1-2.91-.84,3.38,3.38,0,0,1-1.17-2.09l-.15-1.3a11.42,11.42,0,0,1-4.12,3.27,11.63,11.63,0,0,1-5,1.15,9.55,9.55,0,0,1-4.48-1,8.05,8.05,0,0,1-3.12-2.82A7.21,7.21,0,0,1,557.29,393.65Zm15.65,1.21a3.9,3.9,0,0,0,.86-1.08,2.29,2.29,0,0,0,.34-1v-2.48a13.26,13.26,0,0,0-2.5-.72,12.88,12.88,0,0,0-2.54-.26,7.37,7.37,0,0,0-4.11,1,3.2,3.2,0,0,0-1.61,2.79,3.44,3.44,0,0,0,.53,1.8,3.74,3.74,0,0,0,1.51,1.38,5.26,5.26,0,0,0,2.43.51,7.4,7.4,0,0,0,2.83-.56A6.86,6.86,0,0,0,572.94,394.86Z" transform="translate(-533.34 -366.92)"/><path d="M586.14,405.9c.57.12,1.11.23,1.6.31s.92.13,1.28.17a2.46,2.46,0,0,0,1.51-.46,4.48,4.48,0,0,0,1.17-1.61,20,20,0,0,0,1.2-3.24l-9.93-25h6.67l6.77,18.45,6-18.45h6.14L597.94,406a9.05,9.05,0,0,1-1.75,3,8.34,8.34,0,0,1-2.9,2.14,9.33,9.33,0,0,1-3.94.79,9.86,9.86,0,0,1-1.53-.12,8.8,8.8,0,0,1-1.68-.45Z" transform="translate(-533.34 -366.92)"/><path d="M627.68,390.22q0,5.52-2.07,8.33a7.29,7.29,0,0,1-6.28,2.8,7.39,7.39,0,0,1-6.25-2.73q-2.1-2.73-2.15-8.1v-4.43c0-3.68.68-6.44,2.06-8.28s3.48-2.76,6.3-2.76,4.89.9,6.27,2.69,2.08,4.48,2.12,8.05Zm-4.27-4.78a10.78,10.78,0,0,0-1-5.28,3.76,3.76,0,0,0-6.2-.09,9.92,9.92,0,0,0-1,5v5.8a11.07,11.07,0,0,0,1,5.34,3.36,3.36,0,0,0,3.15,1.76,3.31,3.31,0,0,0,3-1.62,10.6,10.6,0,0,0,1-5.09Z" transform="translate(-533.34 -366.92)"/><path d="M632.6,388.31l1.39-12.9h13.74v3.69H637.54l-.7,6.11a8,8,0,0,1,4-1,7.12,7.12,0,0,1,5.69,2.33,9.3,9.3,0,0,1,2,6.3,8.52,8.52,0,0,1-2.25,6.21,8.22,8.22,0,0,1-6.17,2.31,8.61,8.61,0,0,1-5.83-2,7.23,7.23,0,0,1-2.5-5.27h4.13a4.53,4.53,0,0,0,1.33,2.86,4.09,4.09,0,0,0,2.85,1,3.68,3.68,0,0,0,3.07-1.4,6.11,6.11,0,0,0,1.1-3.84,5.4,5.4,0,0,0-1.21-3.7,4.25,4.25,0,0,0-3.34-1.36,4.7,4.7,0,0,0-3.73,1.51Z" transform="translate(-533.34 -366.92)"/><path class="cls-1" d="M668.6,390.22q0,5.52-2.07,8.33c-1.37,1.87-3.47,2.8-6.28,2.8a7.39,7.39,0,0,1-6.25-2.73q-2.1-2.73-2.15-8.1v-4.43q0-5.52,2.06-8.28t6.3-2.76c2.81,0,4.89.9,6.27,2.69s2.08,4.48,2.12,8.05Zm-4.27-4.78a10.78,10.78,0,0,0-1-5.28,3.76,3.76,0,0,0-6.2-.09,10,10,0,0,0-1,5v5.8a11.19,11.19,0,0,0,1,5.34,3.36,3.36,0,0,0,3.15,1.76,3.31,3.31,0,0,0,3-1.62,10.48,10.48,0,0,0,1-5.09Z" transform="translate(-533.34 -366.92)"/><path d="M685.67,375.28v3.54h-.53a8.44,8.44,0,0,0-5.73,2,8.2,8.2,0,0,0-2.55,5.43,6.94,6.94,0,0,1,5.26-2.17,6.54,6.54,0,0,1,5.35,2.4,9.39,9.39,0,0,1,2,6.17,8.78,8.78,0,0,1-2.3,6.31,7.87,7.87,0,0,1-6,2.42,7.73,7.73,0,0,1-6.21-2.83,11.13,11.13,0,0,1-2.38-7.42v-1.46q0-6.72,3.28-10.54t9.43-3.82Zm-4.59,12.22a4.49,4.49,0,0,0-2.58.79,4.66,4.66,0,0,0-1.71,2.11v1.3a7.65,7.65,0,0,0,1.2,4.53,3.78,3.78,0,0,0,6.1.25,6.92,6.92,0,0,0,0-7.52A3.6,3.6,0,0,0,681.08,387.5Z" transform="translate(-533.34 -366.92)"/></svg>